<mxfile host="app.diagrams.net" modified="2024-03-15T23:28:35.707Z" agent="Mozilla/5.0 (Windows NT 10.0; Win64; x64) AppleWebKit/537.36 (KHTML, like Gecko) Chrome/122.0.0.0 Safari/537.36" etag="K0Wwf6G7UO6KYUGrQnSh" version="24.0.7" type="device">
  <diagram name="Страница — 1" id="ZUGDs8WYux3gp6toKiaC">
    <mxGraphModel dx="875" dy="442" grid="1" gridSize="10" guides="1" tooltips="1" connect="1" arrows="1" fold="1" page="1" pageScale="1" pageWidth="827" pageHeight="1169" math="0" shadow="0">
      <root>
        <mxCell id="0" />
        <mxCell id="1" parent="0" />
        <mxCell id="NSdJdt-GrJdarMbeJcg_-2" value="" style="shape=umlActor;verticalLabelPosition=bottom;verticalAlign=top;html=1;" vertex="1" parent="1">
          <mxGeometry x="120" y="360" width="30" height="60" as="geometry" />
        </mxCell>
        <mxCell id="NSdJdt-GrJdarMbeJcg_-3" value="Пользователь" style="text;strokeColor=none;align=center;fillColor=none;html=1;verticalAlign=middle;whiteSpace=wrap;rounded=0;fontSize=14;" vertex="1" parent="1">
          <mxGeometry x="90" y="330" width="90" height="30" as="geometry" />
        </mxCell>
        <mxCell id="NSdJdt-GrJdarMbeJcg_-4" value="&lt;font style=&quot;font-size: 14px;&quot;&gt;Интерфейс пользователя&lt;/font&gt;" style="rounded=1;whiteSpace=wrap;html=1;fillColor=#fff2cc;strokeColor=#d6b656;" vertex="1" parent="1">
          <mxGeometry x="370" y="360" width="100" height="50" as="geometry" />
        </mxCell>
        <mxCell id="NSdJdt-GrJdarMbeJcg_-5" value="" style="endArrow=none;dashed=1;html=1;rounded=0;" edge="1" parent="1" target="NSdJdt-GrJdarMbeJcg_-2">
          <mxGeometry width="50" height="50" relative="1" as="geometry">
            <mxPoint x="135" y="470" as="sourcePoint" />
            <mxPoint x="440" y="450" as="targetPoint" />
          </mxGeometry>
        </mxCell>
        <mxCell id="NSdJdt-GrJdarMbeJcg_-6" value="" style="rounded=0;whiteSpace=wrap;html=1;fillColor=#ffe6cc;strokeColor=#d79b00;" vertex="1" parent="1">
          <mxGeometry x="130" y="460" width="10" height="340" as="geometry" />
        </mxCell>
        <mxCell id="NSdJdt-GrJdarMbeJcg_-7" value="&lt;font style=&quot;font-size: 14px;&quot;&gt;Обработчик команд&lt;/font&gt;" style="rounded=1;whiteSpace=wrap;html=1;fillColor=#fff2cc;strokeColor=#d6b656;" vertex="1" parent="1">
          <mxGeometry x="670" y="360" width="100" height="50" as="geometry" />
        </mxCell>
        <mxCell id="NSdJdt-GrJdarMbeJcg_-8" value="JWT-токены" style="rounded=1;whiteSpace=wrap;html=1;fillColor=#fff2cc;strokeColor=#d6b656;fontSize=15;" vertex="1" parent="1">
          <mxGeometry x="970" y="360" width="100" height="50" as="geometry" />
        </mxCell>
        <mxCell id="NSdJdt-GrJdarMbeJcg_-9" value="" style="rounded=0;whiteSpace=wrap;html=1;fillColor=#ffe6cc;strokeColor=#d79b00;" vertex="1" parent="1">
          <mxGeometry x="415" y="460" width="10" height="340" as="geometry" />
        </mxCell>
        <mxCell id="NSdJdt-GrJdarMbeJcg_-10" value="" style="endArrow=none;dashed=1;html=1;rounded=0;entryX=0.5;entryY=1;entryDx=0;entryDy=0;" edge="1" parent="1" target="NSdJdt-GrJdarMbeJcg_-4">
          <mxGeometry width="50" height="50" relative="1" as="geometry">
            <mxPoint x="420" y="460" as="sourcePoint" />
            <mxPoint x="470" y="560" as="targetPoint" />
          </mxGeometry>
        </mxCell>
        <mxCell id="NSdJdt-GrJdarMbeJcg_-11" value="" style="endArrow=classic;html=1;rounded=0;exitX=1.3;exitY=0.06;exitDx=0;exitDy=0;exitPerimeter=0;entryX=0.2;entryY=0.06;entryDx=0;entryDy=0;entryPerimeter=0;" edge="1" parent="1" source="NSdJdt-GrJdarMbeJcg_-6" target="NSdJdt-GrJdarMbeJcg_-9">
          <mxGeometry width="50" height="50" relative="1" as="geometry">
            <mxPoint x="350" y="600" as="sourcePoint" />
            <mxPoint x="400" y="550" as="targetPoint" />
          </mxGeometry>
        </mxCell>
        <mxCell id="NSdJdt-GrJdarMbeJcg_-12" value="Нажатие кнопки &quot;Выйти&quot;" style="text;strokeColor=none;align=center;fillColor=none;html=1;verticalAlign=middle;whiteSpace=wrap;rounded=0;" vertex="1" parent="1">
          <mxGeometry x="200" y="450" width="160" height="30" as="geometry" />
        </mxCell>
        <mxCell id="NSdJdt-GrJdarMbeJcg_-13" value="" style="rounded=0;whiteSpace=wrap;html=1;fillColor=#ffe6cc;strokeColor=#d79b00;" vertex="1" parent="1">
          <mxGeometry x="715" y="460" width="10" height="170" as="geometry" />
        </mxCell>
        <mxCell id="NSdJdt-GrJdarMbeJcg_-14" value="" style="rounded=0;whiteSpace=wrap;html=1;fillColor=#ffe6cc;strokeColor=#d79b00;" vertex="1" parent="1">
          <mxGeometry x="1015" y="460" width="10" height="140" as="geometry" />
        </mxCell>
        <mxCell id="NSdJdt-GrJdarMbeJcg_-15" value="" style="endArrow=none;dashed=1;html=1;rounded=0;entryX=0.5;entryY=1;entryDx=0;entryDy=0;exitX=0.5;exitY=0;exitDx=0;exitDy=0;fillColor=#ffe6cc;strokeColor=#000000;" edge="1" parent="1" source="NSdJdt-GrJdarMbeJcg_-13" target="NSdJdt-GrJdarMbeJcg_-7">
          <mxGeometry width="50" height="50" relative="1" as="geometry">
            <mxPoint x="760" y="600" as="sourcePoint" />
            <mxPoint x="810" y="550" as="targetPoint" />
          </mxGeometry>
        </mxCell>
        <mxCell id="NSdJdt-GrJdarMbeJcg_-16" value="" style="endArrow=none;dashed=1;html=1;rounded=0;entryX=0.5;entryY=1;entryDx=0;entryDy=0;exitX=0.5;exitY=0;exitDx=0;exitDy=0;" edge="1" parent="1" source="NSdJdt-GrJdarMbeJcg_-14" target="NSdJdt-GrJdarMbeJcg_-8">
          <mxGeometry width="50" height="50" relative="1" as="geometry">
            <mxPoint x="760" y="600" as="sourcePoint" />
            <mxPoint x="810" y="550" as="targetPoint" />
          </mxGeometry>
        </mxCell>
        <mxCell id="NSdJdt-GrJdarMbeJcg_-17" value="" style="endArrow=classic;html=1;rounded=0;exitX=0.867;exitY=0.107;exitDx=0;exitDy=0;exitPerimeter=0;entryX=0.5;entryY=0.214;entryDx=0;entryDy=0;entryPerimeter=0;" edge="1" parent="1" source="NSdJdt-GrJdarMbeJcg_-9" target="NSdJdt-GrJdarMbeJcg_-13">
          <mxGeometry width="50" height="50" relative="1" as="geometry">
            <mxPoint x="500" y="600" as="sourcePoint" />
            <mxPoint x="550" y="550" as="targetPoint" />
          </mxGeometry>
        </mxCell>
        <mxCell id="NSdJdt-GrJdarMbeJcg_-18" value="HTTP-запрос" style="text;strokeColor=none;align=center;fillColor=none;html=1;verticalAlign=middle;whiteSpace=wrap;rounded=0;" vertex="1" parent="1">
          <mxGeometry x="530" y="470" width="90" height="30" as="geometry" />
        </mxCell>
        <mxCell id="NSdJdt-GrJdarMbeJcg_-19" value="" style="endArrow=classic;html=1;rounded=0;entryX=-0.133;entryY=0.352;entryDx=0;entryDy=0;entryPerimeter=0;exitX=0.867;exitY=0.282;exitDx=0;exitDy=0;exitPerimeter=0;" edge="1" parent="1" source="NSdJdt-GrJdarMbeJcg_-13" target="NSdJdt-GrJdarMbeJcg_-14">
          <mxGeometry width="50" height="50" relative="1" as="geometry">
            <mxPoint x="730" y="509" as="sourcePoint" />
            <mxPoint x="740" y="550" as="targetPoint" />
          </mxGeometry>
        </mxCell>
        <mxCell id="NSdJdt-GrJdarMbeJcg_-20" value="Удаление токена пользователя" style="text;strokeColor=none;align=center;fillColor=none;html=1;verticalAlign=middle;whiteSpace=wrap;rounded=0;" vertex="1" parent="1">
          <mxGeometry x="790" y="480" width="160" height="30" as="geometry" />
        </mxCell>
        <mxCell id="NSdJdt-GrJdarMbeJcg_-21" value="Результат" style="html=1;verticalAlign=bottom;endArrow=open;dashed=1;endSize=8;curved=0;rounded=0;entryX=0.933;entryY=0.655;entryDx=0;entryDy=0;entryPerimeter=0;fontSize=14;" edge="1" parent="1">
          <mxGeometry relative="1" as="geometry">
            <mxPoint x="1015.67" y="550" as="sourcePoint" />
            <mxPoint x="724.9999999999999" y="551.35" as="targetPoint" />
          </mxGeometry>
        </mxCell>
        <mxCell id="NSdJdt-GrJdarMbeJcg_-22" value="Ответ" style="html=1;verticalAlign=bottom;endArrow=open;dashed=1;endSize=8;curved=0;rounded=0;exitX=-0.267;exitY=0.827;exitDx=0;exitDy=0;exitPerimeter=0;entryX=1.067;entryY=0.469;entryDx=0;entryDy=0;entryPerimeter=0;fontSize=14;" edge="1" parent="1">
          <mxGeometry x="0.0117" relative="1" as="geometry">
            <mxPoint x="714.9999999999997" y="570.0000000000001" as="sourcePoint" />
            <mxPoint x="428.3400000000001" y="570.1100000000002" as="targetPoint" />
            <mxPoint as="offset" />
          </mxGeometry>
        </mxCell>
        <mxCell id="NSdJdt-GrJdarMbeJcg_-23" value="alt" style="shape=umlFrame;whiteSpace=wrap;html=1;pointerEvents=0;fontSize=17;" vertex="1" parent="1">
          <mxGeometry x="60" y="590" width="600" height="200" as="geometry" />
        </mxCell>
        <mxCell id="NSdJdt-GrJdarMbeJcg_-24" value="" style="rounded=0;whiteSpace=wrap;html=1;fillColor=#ffe6cc;strokeColor=#d79b00;" vertex="1" parent="1">
          <mxGeometry x="420" y="630" width="10" height="40" as="geometry" />
        </mxCell>
        <mxCell id="NSdJdt-GrJdarMbeJcg_-25" value="" style="endArrow=classic;html=1;rounded=0;exitX=1;exitY=0.54;exitDx=0;exitDy=0;exitPerimeter=0;entryX=1.133;entryY=0.596;entryDx=0;entryDy=0;entryPerimeter=0;" edge="1" parent="1">
          <mxGeometry width="50" height="50" relative="1" as="geometry">
            <mxPoint x="425" y="622" as="sourcePoint" />
            <mxPoint x="431.33000000000015" y="659.8" as="targetPoint" />
            <Array as="points">
              <mxPoint x="470" y="622" />
              <mxPoint x="470" y="660" />
            </Array>
          </mxGeometry>
        </mxCell>
        <mxCell id="NSdJdt-GrJdarMbeJcg_-26" value="Переход на форму входа" style="text;strokeColor=none;align=center;fillColor=none;html=1;verticalAlign=middle;whiteSpace=wrap;rounded=0;" vertex="1" parent="1">
          <mxGeometry x="470" y="630" width="140" height="30" as="geometry" />
        </mxCell>
        <mxCell id="NSdJdt-GrJdarMbeJcg_-27" value="opt" style="shape=umlFrame;whiteSpace=wrap;html=1;pointerEvents=0;fontSize=17;" vertex="1" parent="1">
          <mxGeometry x="120" y="607.5" width="480" height="75" as="geometry" />
        </mxCell>
        <mxCell id="NSdJdt-GrJdarMbeJcg_-28" value="Отобразить страницу входа в систему" style="html=1;verticalAlign=bottom;endArrow=open;dashed=1;endSize=8;curved=0;rounded=0;exitX=-0.133;exitY=0.592;exitDx=0;exitDy=0;exitPerimeter=0;entryX=0.833;entryY=0.59;entryDx=0;entryDy=0;entryPerimeter=0;" edge="1" parent="1" source="NSdJdt-GrJdarMbeJcg_-9" target="NSdJdt-GrJdarMbeJcg_-6">
          <mxGeometry relative="1" as="geometry">
            <mxPoint x="380" y="630" as="sourcePoint" />
            <mxPoint x="300" y="630" as="targetPoint" />
          </mxGeometry>
        </mxCell>
        <mxCell id="NSdJdt-GrJdarMbeJcg_-29" value="[успешный выход]" style="text;strokeColor=none;align=center;fillColor=none;html=1;verticalAlign=middle;whiteSpace=wrap;rounded=0;" vertex="1" parent="1">
          <mxGeometry x="130" y="585" width="140" height="30" as="geometry" />
        </mxCell>
        <mxCell id="NSdJdt-GrJdarMbeJcg_-30" value="&lt;font style=&quot;font-size: 17px;&quot;&gt;opt&lt;/font&gt;" style="shape=umlFrame;whiteSpace=wrap;html=1;pointerEvents=0;" vertex="1" parent="1">
          <mxGeometry x="120" y="710" width="480" height="70" as="geometry" />
        </mxCell>
        <mxCell id="NSdJdt-GrJdarMbeJcg_-31" value="Вывести сообщение об ошибке" style="html=1;verticalAlign=bottom;endArrow=open;dashed=1;endSize=8;curved=0;rounded=0;exitX=-0.267;exitY=0.888;exitDx=0;exitDy=0;exitPerimeter=0;entryX=1.1;entryY=0.892;entryDx=0;entryDy=0;entryPerimeter=0;" edge="1" parent="1" source="NSdJdt-GrJdarMbeJcg_-9" target="NSdJdt-GrJdarMbeJcg_-6">
          <mxGeometry relative="1" as="geometry">
            <mxPoint x="380" y="630" as="sourcePoint" />
            <mxPoint x="300" y="630" as="targetPoint" />
          </mxGeometry>
        </mxCell>
        <mxCell id="NSdJdt-GrJdarMbeJcg_-32" value="[ошибка выхода]" style="text;strokeColor=none;align=center;fillColor=none;html=1;verticalAlign=middle;whiteSpace=wrap;rounded=0;" vertex="1" parent="1">
          <mxGeometry x="135" y="680" width="130" height="30" as="geometry" />
        </mxCell>
      </root>
    </mxGraphModel>
  </diagram>
</mxfile>
